<?xml version="1.0" standalone="no"?>
<!DOCTYPE svg PUBLIC "-//W3C//DTD SVG 20010904//EN"
 "http://www.w3.org/TR/2001/REC-SVG-20010904/DTD/svg10.dtd">
<svg version="1.0" xmlns="http://www.w3.org/2000/svg"
 width="700.000000pt" height="700.000000pt" viewBox="0 0 700.000000 700.000000"
 preserveAspectRatio="xMidYMid meet">
<metadata>
Created by potrace 1.14, written by Peter Selinger 2001-2017
</metadata>
<g transform="translate(0.000000,700.000000) scale(0.100000,-0.100000)"
fill="#000000" stroke="none">
<path d="M3540 6011 c0 -5 -12 -8 -26 -5 -18 3 -23 1 -18 -7 5 -8 3 -9 -7 -3
-22 13 -51 15 -81 5 -18 -6 -30 -6 -34 0 -4 6 -11 6 -20 -2 -11 -9 -14 -8 -14
2 -1 11 -3 10 -10 -2 -6 -10 -21 -14 -42 -13 -18 1 -41 -2 -51 -8 -15 -7 -18
-7 -12 2 5 9 3 9 -11 2 -11 -5 -35 -9 -56 -8 -28 1 -34 -2 -26 -12 8 -10 7
-11 -7 -6 -14 6 -16 4 -10 -7 7 -11 6 -12 -7 -2 -8 7 -18 9 -22 5 -4 -4 -12
-8 -17 -8 -5 -1 -10 -3 -11 -4 -2 -1 -16 -4 -33 -6 -16 -2 -34 -9 -40 -17 -5
-8 -15 -12 -21 -10 -6 2 -46 -14 -88 -37 -43 -22 -82 -37 -88 -34 -6 4 -8 2
-4 -4 3 -6 -2 -13 -13 -17 -11 -3 -22 -13 -25 -21 -3 -8 -11 -12 -16 -9 -6 4
-22 -5 -34 -18 -13 -14 -27 -23 -30 -19 -4 3 -22 -10 -39 -29 -18 -20 -39 -33
-46 -31 -9 3 -11 0 -6 -8 6 -10 4 -12 -8 -7 -12 4 -14 2 -10 -10 4 -11 2 -14
-5 -9 -7 4 -12 2 -12 -4 0 -19 -29 -42 -42 -34 -7 4 -10 4 -6 -1 4 -4 0 -14
-8 -22 -8 -8 -12 -18 -9 -23 3 -4 -3 -7 -13 -6 -11 1 -16 -5 -14 -16 2 -11
-10 -25 -30 -38 -18 -11 -29 -20 -24 -20 5 0 2 -8 -7 -18 -10 -10 -14 -22 -10
-25 3 -4 -1 -7 -10 -7 -9 0 -16 -6 -14 -12 1 -7 -4 -12 -11 -10 -8 1 -11 -2
-7 -8 3 -5 -3 -19 -14 -31 -11 -12 -17 -28 -14 -37 4 -10 2 -13 -5 -8 -7 4
-12 2 -12 -4 0 -6 -5 -8 -12 -4 -10 6 -10 4 0 -8 8 -10 9 -19 3 -22 -5 -3 -12
0 -14 6 -3 7 -6 1 -6 -14 -1 -16 -5 -28 -11 -28 -5 0 -10 -3 -9 -7 2 -15 -13
-53 -22 -53 -4 0 -6 -9 -4 -20 2 -12 -3 -21 -16 -25 -11 -4 -17 -11 -13 -16 3
-6 0 -16 -6 -24 -6 -8 -9 -19 -6 -24 4 -5 0 -13 -8 -18 -8 -4 -14 -10 -14 -13
0 -3 -3 -22 -7 -42 -5 -26 -13 -38 -24 -38 -9 0 -12 -3 -6 -8 15 -10 18 -35 4
-26 -8 5 -10 2 -6 -9 3 -9 -1 -18 -10 -21 -13 -5 -13 -9 -2 -23 10 -12 10 -14
2 -9 -12 6 -18 -11 -14 -36 0 -5 -3 -8 -9 -8 -5 0 -7 -7 -4 -15 4 -8 2 -15 -4
-15 -5 0 -7 -11 -5 -24 3 -13 0 -27 -6 -30 -5 -4 -8 -13 -4 -21 3 -8 0 -15 -6
-15 -6 0 -8 -7 -4 -17 5 -12 3 -14 -7 -8 -8 5 -11 4 -7 -1 3 -6 2 -16 -3 -24
-5 -9 -4 -20 3 -29 8 -10 8 -13 1 -8 -13 8 -24 -22 -24 -65 0 -16 -4 -28 -8
-28 -4 0 -9 -17 -10 -37 -2 -20 -8 -43 -14 -51 -9 -10 -8 -16 3 -23 10 -6 10
-9 2 -9 -7 0 -13 -11 -13 -25 0 -14 -5 -25 -10 -25 -7 0 -7 -6 0 -20 8 -14 8
-20 0 -20 -6 0 -8 -4 -5 -10 3 -5 1 -10 -4 -10 -6 0 -11 -5 -11 -11 0 -5 5 -7
10 -4 6 3 10 1 10 -4 0 -6 -4 -11 -9 -11 -10 0 -7 -32 5 -52 5 -7 3 -8 -6 -3
-10 6 -12 1 -7 -24 4 -18 3 -30 -1 -27 -5 3 -9 -1 -9 -9 0 -8 3 -15 7 -15 4 0
6 -12 5 -27 -1 -16 4 -39 12 -52 8 -13 11 -21 5 -17 -6 3 -5 -4 1 -18 7 -13
16 -22 21 -19 5 4 6 1 3 -4 -7 -12 50 -79 59 -70 8 8 45 -32 49 -54 2 -10 -1
-21 -6 -25 -6 -4 -6 -11 2 -20 7 -9 7 -14 1 -14 -5 0 -9 -14 -8 -31 1 -16 -1
-32 -6 -35 -5 -3 -6 -10 -3 -15 4 -5 1 -9 -4 -9 -6 0 -10 -5 -9 -12 3 -11 -8
-13 -43 -9 -8 1 -8 6 1 16 10 13 9 15 -9 15 -11 0 -21 5 -21 10 0 6 -7 10 -16
10 -9 0 -12 5 -8 13 6 10 4 10 -7 0 -15 -15 -33 -17 -25 -4 4 5 -3 7 -14 4
-11 -3 -20 -10 -20 -16 0 -6 -3 -8 -6 -4 -9 9 -34 -18 -54 -59 -12 -22 -14
-36 -7 -41 6 -4 5 -10 -4 -17 -8 -6 -14 -18 -13 -26 0 -8 -5 -25 -13 -37 -16
-27 -16 -33 -2 -33 5 0 7 5 3 12 -4 7 -3 8 5 4 8 -6 9 -12 2 -20 -6 -7 -8 -16
-4 -19 3 -4 0 -14 -8 -24 -12 -14 -12 -15 0 -9 11 7 13 1 9 -28 -2 -21 0 -36
7 -37 5 0 1 -4 -10 -9 -11 -5 -14 -9 -6 -9 9 -1 12 -10 9 -31 -3 -17 -1 -30 3
-30 3 0 5 -13 4 -30 -1 -16 1 -30 6 -30 14 0 10 -40 -3 -41 -7 0 -4 -4 7 -9
11 -5 15 -9 9 -9 -8 -1 -9 -12 -4 -36 4 -19 6 -35 3 -35 -3 0 0 -7 7 -15 10
-12 10 -15 -1 -15 -9 0 -10 -3 -3 -8 6 -4 11 -14 11 -22 0 -8 4 -24 9 -34 5
-14 4 -17 -5 -11 -10 6 -10 2 0 -16 7 -13 12 -30 11 -36 -2 -7 2 -13 8 -13 6
0 8 -4 5 -10 -3 -5 -2 -10 3 -10 6 0 13 -7 16 -16 6 -15 4 -15 -11 -3 -9 8 -4
-4 12 -25 17 -22 29 -41 28 -42 -2 -2 9 -15 22 -28 14 -14 25 -20 25 -13 0 8
3 8 9 -2 7 -10 13 -11 30 -2 16 9 21 9 21 -1 1 -8 7 -5 15 6 8 11 15 15 15 9
0 -6 11 -9 25 -8 14 2 25 -1 25 -6 0 -6 4 -8 9 -4 5 3 16 -1 24 -9 8 -8 17
-13 19 -11 3 3 5 -2 6 -10 1 -8 3 -22 4 -30 1 -8 5 -15 9 -15 5 0 6 -7 3 -15
-4 -9 0 -15 7 -15 11 0 11 -3 -1 -10 -11 -7 -11 -10 -2 -10 7 0 10 -4 7 -10
-3 -6 -1 -10 5 -10 6 0 8 -4 5 -10 -3 -6 -1 -10 5 -10 7 0 10 -6 7 -14 -3 -8
-3 -17 1 -20 3 -4 8 -19 10 -34 2 -15 7 -28 12 -30 5 -2 6 -10 3 -19 -4 -11
-2 -14 5 -9 8 5 10 2 6 -8 -3 -9 -1 -16 6 -16 6 0 8 -5 5 -10 -4 -6 2 -18 12
-28 11 -9 13 -13 6 -8 -10 6 -12 4 -7 -8 3 -9 11 -16 16 -16 6 0 8 -7 4 -15
-3 -8 -1 -15 4 -15 6 0 10 -7 10 -15 0 -8 12 -26 28 -41 15 -15 19 -22 10 -15
-28 21 -21 3 10 -26 15 -15 20 -23 12 -19 -9 5 -8 2 2 -7 10 -8 15 -16 13 -19
-3 -3 1 -11 10 -18 8 -7 15 -19 15 -27 0 -8 3 -12 8 -10 4 3 16 -5 27 -16 11
-11 14 -17 6 -12 -9 5 -7 -1 4 -19 10 -14 21 -26 26 -26 5 0 9 -7 9 -16 0 -9
9 -18 20 -21 11 -3 18 -9 15 -13 -3 -4 2 -10 10 -14 8 -3 15 -12 15 -21 0 -8
7 -15 16 -15 8 0 12 -5 9 -10 -3 -6 1 -10 10 -10 9 0 14 -4 11 -8 -3 -5 4 -14
14 -22 10 -8 17 -17 14 -22 -3 -4 2 -8 10 -8 8 0 18 -9 21 -20 6 -19 18 -25
40 -20 5 1 7 -1 3 -5 -4 -4 4 -18 18 -32 13 -13 22 -28 19 -33 -3 -5 4 -7 15
-5 11 2 18 0 15 -6 -4 -5 1 -12 9 -15 9 -3 16 -13 16 -20 0 -8 8 -18 18 -21 9
-4 22 -14 29 -22 7 -9 13 -12 13 -8 0 4 6 2 14 -5 8 -7 12 -16 10 -20 -3 -4 5
-5 16 -3 11 2 18 0 15 -5 -7 -11 24 -42 36 -34 5 3 12 -2 15 -10 3 -9 12 -16
20 -16 8 0 14 -4 14 -10 0 -5 7 -10 15 -10 8 0 15 -5 15 -11 0 -6 7 -9 15 -6
8 4 17 1 21 -5 5 -7 2 -8 -6 -3 -8 5 -11 4 -6 -3 4 -6 13 -9 20 -6 7 3 20 -1
27 -9 8 -7 19 -12 25 -10 7 2 19 -3 28 -12 9 -10 16 -12 16 -5 0 7 7 5 16 -5
9 -9 22 -14 30 -11 7 3 14 0 16 -5 2 -5 17 -12 33 -14 17 -2 30 -4 30 -5 0 -1
11 -3 24 -6 14 -2 31 -10 39 -17 12 -9 16 -9 19 1 3 6 10 9 16 5 20 -12 37
-12 37 0 0 7 5 5 10 -3 5 -8 10 -11 10 -6 0 5 10 1 22 -10 17 -14 19 -15 9 -2
-12 16 -10 16 17 9 18 -6 34 -5 40 1 6 6 12 6 17 -3 6 -8 4 -10 -5 -4 -8 5
-11 4 -6 -3 8 -13 36 -5 36 11 0 6 7 2 16 -9 8 -10 12 -13 8 -5 -5 11 -3 13 9
8 10 -4 17 -1 17 6 0 8 4 6 10 -3 6 -9 10 -10 10 -3 0 7 10 10 25 7 15 -3 25
0 25 7 0 8 5 7 16 -2 11 -9 17 -10 23 -1 4 6 22 12 41 13 19 2 40 5 45 9 6 3
23 7 39 9 16 2 39 9 50 16 20 14 25 15 47 15 5 0 8 4 5 8 -2 4 5 9 16 9 11 1
27 10 35 20 8 10 11 11 7 3 -7 -13 -5 -13 9 -1 9 7 17 10 17 7 0 -4 7 -1 15 8
8 8 15 21 15 28 0 11 2 11 9 0 7 -11 9 -10 15 3 3 9 10 13 16 10 5 -3 10 -1
10 4 0 6 6 11 13 11 6 0 25 11 41 25 16 13 33 22 39 18 5 -3 8 -2 5 3 -5 10
32 47 53 52 8 2 16 8 17 13 2 5 9 6 15 2 6 -4 8 0 4 10 -4 12 -2 14 10 10 10
-4 14 -2 10 4 -4 7 6 17 22 24 16 7 28 16 27 19 -2 3 6 14 17 25 11 11 16 14
12 6 -5 -9 -4 -12 3 -7 7 4 12 15 12 24 0 15 2 15 10 2 8 -13 10 -12 10 3 0
10 5 15 10 12 6 -3 13 1 16 9 3 9 11 13 17 9 7 -4 8 0 4 11 -5 12 -3 17 5 14
7 -3 21 4 31 14 9 10 14 18 11 18 -3 0 12 17 33 37 21 21 37 41 36 45 -2 5 4
8 12 8 9 0 12 6 8 15 -3 9 -2 15 3 13 5 -1 23 10 39 26 17 16 23 26 15 22 -8
-4 -6 0 4 8 11 9 16 16 10 16 -5 0 -2 5 6 10 8 5 15 15 15 22 1 7 6 12 13 11
7 -2 12 6 12 17 0 11 5 20 10 20 6 0 10 7 10 15 0 8 4 15 10 15 5 0 7 7 4 15
-4 8 -2 15 4 15 8 0 20 27 20 47 0 3 7 10 16 15 9 5 13 15 9 25 -4 10 -2 14 4
10 6 -4 14 0 17 9 3 9 2 12 -5 8 -6 -3 -5 3 3 15 7 12 16 21 20 21 4 0 5 6 2
14 -3 7 2 21 11 30 9 9 11 16 5 16 -6 0 -8 5 -5 10 4 6 11 8 16 4 5 -3 8 -2 7
3 -4 16 14 53 23 48 5 -4 9 -2 9 3 0 11 72 11 80 1 8 -11 80 -17 86 -8 3 5 9
7 13 4 5 -2 21 7 37 21 16 15 22 23 14 19 -9 -5 -7 1 5 16 12 13 27 33 35 43
13 18 13 19 0 11 -11 -6 -10 -3 3 12 9 11 17 25 17 31 0 7 4 12 9 12 5 0 8 8
6 18 -1 9 5 26 14 36 11 13 12 17 2 11 -10 -6 -12 -4 -5 6 5 8 9 19 10 24 0 6
2 16 2 23 1 7 6 11 11 8 5 -4 7 3 4 14 -3 12 0 20 7 20 9 0 10 3 1 13 -8 10
-7 17 1 25 13 13 18 31 22 75 1 16 7 32 12 35 5 4 9 21 9 39 -1 22 4 31 15 31
41 1 110 36 110 57 0 8 5 15 10 15 6 0 10 5 10 11 0 5 -5 7 -12 3 -7 -5 -8 -3
-2 7 12 19 15 71 3 64 -5 -4 -5 3 0 17 8 23 0 47 -26 76 -15 16 -17 26 -3 17
6 -3 7 1 4 9 -3 9 -10 13 -15 10 -5 -3 -9 2 -9 10 0 9 -3 16 -7 16 -5 0 -16
18 -27 40 -10 21 -24 38 -30 37 -6 -1 -10 4 -8 11 1 6 -5 12 -15 12 -9 0 -14
3 -10 6 3 4 -1 13 -9 21 -8 8 -11 20 -7 26 4 7 0 8 -11 4 -14 -5 -17 -3 -12 8
5 14 -6 20 -29 15 -5 -1 -7 2 -3 5 4 4 3 16 -3 27 -18 33 -19 58 -3 58 8 0 12
5 9 10 -3 6 -2 10 4 10 19 0 63 49 55 61 -4 7 -3 9 2 6 6 -3 15 3 22 13 7 12
8 21 2 25 -7 4 -6 13 0 26 6 10 7 19 3 19 -4 0 -1 5 7 10 12 8 12 10 1 10 -11
0 -11 3 0 16 10 13 10 17 -2 26 -11 7 -11 11 -1 15 10 4 10 8 0 21 -10 12 -10
14 0 8 6 -4 12 -2 12 3 0 6 -4 11 -10 11 -5 0 -10 5 -10 11 0 5 4 8 8 5 5 -3
9 1 9 9 0 8 -4 15 -8 15 -4 0 -6 13 -4 30 2 16 -1 32 -7 36 -7 4 -6 9 2 14 8
5 9 13 3 26 -5 11 -9 38 -9 61 1 23 -2 39 -6 37 -5 -3 -8 0 -8 5 0 6 6 11 13
11 8 0 9 3 1 8 -10 7 -13 17 -15 60 0 9 -3 24 -6 32 -3 8 -7 44 -9 80 -6 88
-8 98 -22 112 -14 14 -16 32 -2 23 5 -3 3 7 -5 22 -10 19 -11 29 -4 34 8 5 8
8 1 10 -6 2 -12 15 -14 29 -2 14 -7 31 -11 38 -5 7 -3 12 5 12 10 0 10 2 -1 9
-8 5 -10 14 -6 22 6 9 3 11 -9 6 -13 -5 -15 -3 -8 9 9 16 -2 62 -22 93 -7 11
-6 12 5 6 11 -7 12 -6 2 7 -7 8 -10 18 -6 21 3 4 1 7 -6 7 -8 0 -11 7 -7 15 3
8 2 15 -3 15 -5 0 -14 21 -21 48 -7 26 -20 56 -29 66 -13 16 -13 18 -1 12 8
-4 4 2 -10 14 -14 12 -20 19 -13 16 6 -4 14 -2 17 3 3 5 -1 12 -10 15 -9 3
-14 12 -11 19 2 6 -5 20 -16 29 -11 10 -17 24 -14 32 3 8 -1 17 -9 20 -9 3
-13 10 -10 15 8 13 -4 42 -15 35 -5 -3 -9 2 -9 10 0 9 -4 16 -9 16 -5 0 -12
11 -15 25 -4 16 -11 23 -18 19 -7 -5 -8 -3 -3 5 4 7 -1 20 -11 31 -32 32 -44
49 -44 60 0 6 -6 13 -14 16 -9 3 -12 13 -9 22 4 9 3 14 -1 10 -9 -7 -52 33
-49 44 2 5 -2 8 -8 8 -14 0 -39 26 -39 41 0 7 -3 9 -7 6 -3 -4 -13 2 -20 13
-8 11 -19 17 -25 14 -7 -4 -8 -2 -4 5 4 6 0 14 -8 17 -9 3 -16 14 -17 23 0 11
-2 12 -6 3 -3 -9 -10 -7 -24 9 -10 12 -19 19 -19 15 0 -3 -14 7 -31 24 -18 16
-38 30 -45 30 -8 0 -14 4 -14 9 0 10 -39 27 -52 23 -5 -1 -8 5 -8 13 0 8 -9
15 -20 15 -11 0 -20 5 -20 10 0 6 -7 10 -15 10 -8 0 -15 5 -15 11 0 5 -4 7
-10 4 -5 -3 -10 -1 -10 5 0 6 -4 9 -9 5 -5 -3 -12 -1 -16 5 -4 6 -11 8 -16 5
-5 -4 -9 -1 -9 5 0 6 -4 9 -9 6 -5 -4 -12 0 -14 6 -4 10 -6 10 -6 0 -1 -8 -8
-6 -23 7 -11 11 -25 18 -30 15 -5 -3 -15 0 -23 6 -8 7 -15 10 -15 6 0 -3 -15
0 -32 7 -18 8 -39 12 -47 9 -9 -3 -11 0 -6 8 6 9 3 9 -15 0 -15 -8 -20 -8 -16
-1 5 7 -1 11 -14 11 -14 0 -19 4 -14 13 5 7 0 6 -11 -3 -11 -9 -16 -10 -11 -2
4 7 1 12 -9 12 -10 0 -14 -5 -10 -12 4 -7 1 -6 -7 2 -7 8 -25 14 -40 12 -16
-2 -28 1 -28 7 0 6 -5 11 -11 11 -5 0 -7 -6 -3 -12 6 -10 5 -10 -7 -1 -8 6
-30 12 -49 12 -75 3 -116 7 -125 13 -6 3 -21 4 -35 3 -14 -1 -33 2 -44 7 -13
7 -16 7 -11 -2 5 -8 -2 -10 -24 -7 -18 3 -31 1 -31 -5 0 -7 -5 -7 -12 -1 -7 5
-20 9 -28 8 -8 0 -18 4 -22 10 -5 6 -8 4 -8 -5 0 -13 -1 -13 -10 0 -7 11 -10
11 -10 2 0 -10 -5 -10 -20 -2 -12 7 -20 7 -20 1z"/>
</g>
</svg>
